:SAMPLES-PER-SECOND 30
:FULLY-SPECIFIED
:DEGREES
262
root  -5.10357 40.2458 -30.6288 50.7318 83.1183 51.9602
RightUpLeg  6.59006 -13.3206 -9.11974
RightLeg  13.0724 -8.81724 2.17982
RightFoot  -18.3993 0.116602 3.90833
RightToes  0.000482159 0.542163 -0.142577
Spine  13.5435 0.0311893 6.67423
Spine1  7.24147 1.91869 -4.60226
HEad  10.5404 2.15199 -5.40741
LeftShoulder1  8.36457 -12.1543 -46.601
LeftArm  -8.37993 26.0872 -31.1836
LeftForeArm  22.5366 -20.0088 -3.82449
LeftHand  -0.25398 0.0180481 5.50724
RightShoulder  5.4925 9.07278 37.642
RightArm  -0.924903 -12.0365 34.636
RightForeArm  -4.74558 35.8068 8.37334
RightHand  -1.69553 3.94403 -21.187
LeftUpLeg  -14.3219 0.186126 -4.63633
LeftLeg  2.88375 14.8177 -4.53269
LeftFoot  1.50782 0.299454 -2.76632
LeftToes  1.06247e-005 4.65855e-005 -8.18501e-006
263
root  -5.46524 40.3441 -30.6384 45.9473 82.9073 46.6857
RightUpLeg  5.59177 -12.5973 -8.51202
RightLeg  12.4296 -9.23107 2.5451
RightFoot  -17.1802 0.0442379 3.13967
RightToes  0.000482159 0.542163 -0.142577
Spine  13.0242 0.179073 7.5953
Spine1  7.12366 2.27788 -5.25283
HEad  9.9234 2.24968 -5.35863
LeftShoulder1  8.30403 -12.0021 -46.7196
LeftArm  -8.11386 24.8887 -29.2827
LeftForeArm  22.5264 -20.4502 -3.77982
LeftHand  -0.25398 0.0180481 5.50724
RightShoulder  5.59792 9.18806 38.0597
RightArm  -0.105965 -13.8548 34.8468
RightForeArm  -7.8914 31.7261 7.37696
RightHand  -1.88783 4.78926 -21.6553
LeftUpLeg  -14.5905 1.56637 -4.65028
LeftLeg  4.00917 14.0417 -4.17675
LeftFoot  3.6137 0.199314 -1.68364
LeftToes  1.06247e-005 4.65855e-005 -8.18501e-006
264
root  -5.74238 40.4082 -30.6569 39.0219 82.3825 39.4104
RightUpLeg  4.80598 -12.0801 -8.04691
RightLeg  11.8295 -9.17851 3.00599
RightFoot  -16.1414 -0.0269674 1.96396
RightToes  0.000482159 0.542163 -0.142577
Spine  12.5802 0.439145 8.39719
Spine1  7.12676 2.75325 -5.84648
HEad  9.16136 2.6102 -5.32342
LeftShoulder1  8.2544 -11.9038 -46.7365
LeftArm  -9.069 23.6598 -27.9614
LeftForeArm  21.7318 -20.1423 -3.79417
LeftHand  -0.25398 0.0180481 5.50724
RightShoulder  5.78386 9.47313 38.5055
RightArm  3.15568 -14.6347 34.6652
RightForeArm  -10.5771 25.5617 6.18615
RightHand  -1.85265 4.93089 -20.9709
LeftUpLeg  -14.459 3.80074 -4.71267
LeftLeg  5.66364 13.8659 -3.38161
LeftFoot  4.00853 0.0797168 -0.765497
LeftToes  1.06247e-005 4.65855e-005 -8.18501e-006
265
root  -5.94092 40.4476 -30.647 34.6353 81.8648 34.8752
RightUpLeg  4.37011 -11.6869 -7.73554
RightLeg  11.3879 -9.26499 3.30443
RightFoot  -15.502 -0.0717373 0.925702
RightToes  0.000482159 0.542163 -0.142577
Spine  12.1251 0.651985 8.13889
Spine1  7.19337 2.85928 -5.46742
HEad  8.828 3.18135 -5.22336
LeftShoulder1  8.24463 -11.9185 -46.6343
LeftArm  -10.4082 22.7611 -27.1959
LeftForeArm  20.742 -19.6249 -3.80655
LeftHand  -0.25398 0.0180481 5.50724
RightShoulder  5.98186 9.79092 38.9118
RightArm  4.43616 -14.4137 34.1103
RightForeArm  -6.60454 17.6683 6.42987
RightHand  -1.42723 3.58895 -18.5458
LeftUpLeg  -13.8725 6.45734 -5.0609
LeftLeg  7.66041 13.8835 -2.04425
LeftFoot  2.32012 -0.0197924 0.0600593
LeftToes  1.06247e-005 4.65855e-005 -8.18501e-006
266
root  -6.0718 40.469 -30.6142 32.9156 81.6301 32.9869
RightUpLeg  3.99881 -11.4304 -7.45153
RightLeg  11.2378 -9.39465 3.35919
RightFoot  -15.2207 -0.0796665 0.692952
RightToes  0.000482159 0.542163 -0.142577
Spine  11.512 0.681846 7.09139
Spine1  7.22015 2.53739 -4.44063
HEad  8.8841 3.86558 -5.09217
LeftShoulder1  8.24324 -11.9509 -46.5263
LeftArm  -11.4345 22.1595 -26.532
LeftForeArm  19.8686 -19.4683 -3.79299
LeftHand  -0.25398 0.0180481 5.50724
RightShoulder  6.12666 9.99935 39.2725
RightArm  -1.74956 -14.0615 33.2573
RightForeArm  7.97544 9.7546 8.13903
RightHand  -0.919335 1.62442 -15.3687
LeftUpLeg  -13.3163 9.77566 -5.7057
LeftLeg  10.1065 13.4449 -0.226472
LeftFoot  -0.0784218 -0.115682 1.1814
LeftToes  1.06247e-005 4.65855e-005 -8.18501e-006
267
root  -6.13557 40.4773 -30.5871 33.4761 81.7032 33.2059
RightUpLeg  3.57387 -11.3907 -7.30875
RightLeg  11.1806 -9.4992 3.42481
RightFoot  -15.1613 -0.0724764 0.903477
RightToes  0.000482159 0.542163 -0.142577
Spine  10.7113 0.492677 5.94887
Spine1  7.15582 2.00911 -3.60052
HEad  8.96059 4.56003 -4.83655
LeftShoulder1  8.17833 -11.8839 -46.3558
LeftArm  -12.079 21.6596 -25.7637
LeftForeArm  19.3413 -19.9628 -3.76248
LeftHand  -0.25398 0.0180481 5.50724
RightShoulder  6.19305 10.0483 39.5828
RightArm  -4.81345 -14.7979 32.8363
RightForeArm  16.8602 5.54046 7.2623
RightHand  -0.694095 0.479608 -13.831
LeftUpLeg  -12.9815 13.1115 -6.44126
LeftLeg  12.487 11.9571 1.42997
LeftFoot  -1.92969 -0.161039 2.08741
LeftToes  1.06247e-005 4.65855e-005 -8.18501e-006
268
root  -6.12842 40.483 -30.5783 36.2681 82.0135 35.4918
RightUpLeg  3.1894 -11.5497 -7.38138
RightLeg  10.9918 -9.83545 3.61867
RightFoot  -15.1864 -0.0735551 0.872268
RightToes  0.000482159 0.542163 -0.142577
Spine  9.81999 0.177442 5.01439
Spine1  6.9816 1.46827 -3.19143
HEad  8.86236 5.12349 -4.43629
LeftShoulder1  8.03593 -11.6979 -46.0976
LeftArm  -12.6875 21.2071 -24.9756
LeftForeArm  19.519 -21.25 -3.75964
LeftHand  -0.25398 0.0180481 5.50724
RightShoulder  6.16171 9.94284 39.7018
RightArm  -6.60597 -16.9443 32.6054
RightForeArm  17.5945 5.06642 6.44969
RightHand  -0.717946 0.302703 -14.6502
LeftUpLeg  -12.683 14.8708 -6.9662
LeftLeg  14.0762 9.73662 2.15252
LeftFoot  -3.2714 -0.129196 2.09991
LeftToes  1.06247e-005 4.65855e-005 -8.18501e-006
